IKResults
version=1
nRows=13
nColumns=40
inDegrees=yes

Units are S.I. units (second, meters, Newtons, ...)
Angles are in degrees.

endheader
time	pelvis_tilt	pelvis_list	pelvis_rotation	pelvis_tx	pelvis_ty	pelvis_tz	hip_flexion_r	hip_adduction_r	hip_rotation_r	knee_angle_r	knee_angle_r_beta	ankle_angle_r	subtalar_angle_r	mtp_angle_r	hip_flexion_l	hip_adduction_l	hip_rotation_l	knee_angle_l	knee_angle_l_beta	ankle_angle_l	subtalar_angle_l	mtp_angle_l	lumbar_extension	lumbar_bending	lumbar_rotation	arm_flex_r	arm_add_r	arm_rot_r	elbow_flex_r	pro_sup_r	wrist_flex_r	wrist_dev_r	arm_flex_l	arm_add_l	arm_rot_l	elbow_flex_l	pro_sup_l	wrist_flex_l	wrist_dev_l
      0.48000000	     19.10403263	      3.47173656	     -7.25843192	     -0.42976966	      0.93899822	      1.01997297	    -22.95428592	    -10.11589323	     -7.47059736	    -47.87852453	     -0.83563789	    -15.39781662	     -8.84409178	      2.03722853	     -8.15144278	     -4.75291777	     27.31316431	    -12.70395749	     -0.22172589	      0.12411103	     -7.88050957	     -6.82516062	    -22.27724811	     -8.05979295	      7.18782594	      6.05834185	    -11.83123296	     -7.87258819	     37.42463473	     89.95437384	      0.00000000	      0.00000000	    -11.07778022	      8.19599510	      8.11202443	     13.92313058	     89.95437384	      0.00000000	      0.00000000
      0.49000000	     19.27853943	      3.75202972	     -7.30112172	     -0.41908580	      0.93986469	      1.01895879	    -21.52674631	    -10.71500853	     -7.46653685	    -50.59381585	     -0.88302867	    -17.20027428	    -11.08798731	      4.14834382	     -9.47594636	     -5.34207124	     27.83095832	    -11.81741720	     -0.20625284	     -0.22276732	     -8.95873518	     -7.28661304	    -22.40606608	     -8.34872041	      6.89942261	      5.51498896	    -11.53230685	     -7.94365867	     36.26291117	     89.95437384	      0.00000000	      0.00000000	    -10.43781102	      8.58191033	      6.53796705	     14.46509051	     89.95437384	      0.00000000	      0.00000000
      0.50000000	     19.32045237	      4.06448493	     -7.28388757	     -0.40884547	      0.94047738	      1.01778856	    -19.91304535	    -11.40285847	     -7.73119392	    -53.11227847	     -0.92698413	    -18.17750348	    -12.76464150	      5.04080110	    -10.63231223	     -5.97709651	     28.17588781	    -10.87158227	     -0.18974491	     -0.20553825	    -10.00920725	     -7.49158574	    -22.45118749	     -8.62997877	      6.39429839	      5.17794239	    -11.23943704	     -7.74307701	     34.88001508	     89.95437384	      0.00000000	      0.00000000	     -9.55455575	      8.78975764	      6.42782303	     14.74436662	     89.95437384	      0.00000000	      0.00000000
      0.51000000	     19.70375906	      3.84966908	     -6.87683928	     -0.39854617	      0.94183668	      1.01657054	    -19.04977872	    -11.31113641	     -8.16877806	    -54.95018764	     -0.95906170	    -17.83279881	    -13.27772003	      5.08697823	    -11.96778736	     -5.84587988	     28.50683844	    -10.61498554	     -0.18526645	      0.10050186	    -10.20840359	     -7.51243095	    -23.00375573	     -8.28154780	      5.69577363	      4.64629019	    -10.97059569	     -7.67276271	     33.91398923	     89.95437384	      0.00000000	      0.00000000	     -8.55470772	      8.99753761	      6.29153828	     14.90641643	     89.95437384	      0.00000000	      0.00000000
      0.52000000	     19.36907419	      4.21876657	     -7.15642201	     -0.38882798	      0.94190348	      1.01578501	    -16.77609341	    -11.97314373	     -7.89910011	    -57.42947255	     -1.00233338	    -15.77069617	    -14.82783454	      6.51238528	    -12.50827108	     -6.52864220	     28.51576824	     -9.98777237	     -0.17431951	      0.04062667	    -11.22405511	     -7.78450900	    -22.58836515	     -8.67226472	      5.51710564	      4.55795358	    -10.63303191	     -7.58654852	     31.87268459	     89.95437384	      0.00000000	      0.00000000	     -7.61222862	      9.26297510	      5.52499201	     15.18491992	     89.95437384	      0.00000000	      0.00000000
      0.53000000	     19.58340739	      3.89581495	     -6.91124422	     -0.37903191	      0.94318770	      1.01496034	    -15.67380487	    -11.53307059	     -7.74067493	    -58.75259626	     -1.02542625	    -13.66283702	    -15.11011734	      6.77091433	    -13.65691820	     -6.33057278	     28.43452994	     -9.61797503	     -0.16786533	      0.41208540	    -11.66154213	     -7.89726020	    -22.94971639	     -8.25404374	      4.98950535	      4.31867821	    -10.34412612	     -7.50632098	     30.30632940	     89.95437384	      0.00000000	      0.00000000	     -6.49770478	      9.46795292	      5.32097450	     15.33052745	     89.95437384	      0.00000000	      0.00000000
      0.54000000	     19.76628548	      3.55232654	     -6.68093140	     -0.36959123	      0.94442789	      1.01402109	    -14.49453086	    -11.08179570	     -7.61607606	    -59.82119147	     -1.04407675	    -11.75341700	    -14.97312569	      6.81127215	    -14.68149959	     -6.10222751	     28.18970792	     -9.37404369	     -0.16360793	      0.77209979	    -11.93801481	     -7.96711013	    -23.31131878	     -7.78959294	      4.58246469	      4.09364598	    -10.16515206	     -7.34362508	     28.66829472	     89.95437384	      0.00000000	      0.00000000	     -5.23200773	      9.61146752	      5.28808272	     15.45735913	     89.95437384	      0.00000000	      0.00000000
      0.55000000	     19.80421618	      3.17889455	     -6.41427655	     -0.36022012	      0.94549052	      1.01314721	    -13.16970567	    -10.56719540	     -7.55438024	    -60.62921710	     -1.05817946	     -9.39983465	    -13.68966784	      7.12966705	    -15.54238362	     -5.81441056	     27.92948150	     -9.12133363	     -0.15919730	      1.09834931	    -11.94277832	     -8.07965367	    -23.53240031	     -7.27143187	      4.11375786	      3.91778082	     -9.92450104	     -7.18130778	     27.00328486	     89.95437384	      0.00000000	      0.00000000	     -4.08432386	      9.78507602	      5.16724963	     15.77552525	     89.95437384	      0.00000000	      0.00000000
      0.56000000	     19.94827327	      2.90417194	     -6.08850223	     -0.35116726	      0.94666766	      1.01188888	    -11.93122173	    -10.22542284	     -7.76098613	    -61.17553587	     -1.06771452	     -8.31969363	    -13.60430173	      6.99108244	    -16.38553454	     -5.60238554	     27.96697810	     -9.03806012	     -0.15774391	      1.44018114	    -11.90940384	     -8.05337106	    -23.94062553	     -6.79491338	      3.63975598	      3.45989268	     -9.83995275	     -7.00055398	     25.95490480	     89.95437384	      0.00000000	      0.00000000	     -2.82116966	      9.92274008	      5.08964440	     16.12818345	     89.95437384	      0.00000000	      0.00000000
      0.57000000	     19.91771722	      2.40807134	     -5.71403259	     -0.34208747	      0.94775345	      1.01122311	    -10.74945379	     -9.17926081	     -7.38079434	    -61.17728249	     -1.06774501	     -5.82727484	    -12.96357434	      6.73672155	    -17.11010496	     -5.13183977	     27.09870927	     -8.89610451	     -0.15526631	      1.93550586	    -12.07453765	     -8.09253692	    -24.08926541	     -6.12884124	      3.20873806	      3.37417629	     -9.65174082	     -6.64644755	     24.03349101	     89.95437384	      0.00000000	      0.00000000	     -1.50153705	     10.09381775	      5.05668231	     16.27232415	     89.95437384	      0.00000000	      0.00000000
      0.58000000	     19.91990963	      1.94916038	     -5.26887068	     -0.33302744	      0.94874270	      1.01024083	     -9.58657725	     -8.35920362	     -7.41502363	    -60.98925227	     -1.06446326	     -4.08471036	    -12.13901930	      6.56849856	    -17.75744375	     -4.65326182	     26.48535070	     -8.95817831	     -0.15634971	      2.56122641	    -11.74985194	     -8.06031846	    -24.29797024	     -5.44376938	      2.71376634	      3.05476141	     -9.53115803	     -6.39553437	     22.66659140	     89.95437384	      0.00000000	      0.00000000	     -0.27719449	     10.23483100	      5.18819607	     16.71055673	     89.95437384	      0.00000000	      0.00000000
      0.59000000	     19.86192046	      1.70726023	     -5.00885582	     -0.32403640	      0.94941099	      1.00914609	     -8.24371472	     -8.02098182	     -7.71570047	    -60.72394758	     -1.05983282	     -3.07870414	    -12.01743938	      6.41994029	    -18.31198667	     -4.45449462	     26.34937320	     -8.98383510	     -0.15679750	      2.98284890	    -11.51765160	     -7.98526160	    -24.43269596	     -5.00296337	      2.41563938	      2.48916597	     -9.48760931	     -6.23473386	     21.75651120	     89.95437384	      0.00000000	      0.00000000	      0.95829478	     10.35248927	      5.21042007	     17.27306414	     89.95437384	      0.00000000	      0.00000000
      0.60000000	     19.68554910	      1.29767455	     -4.62060238	     -0.31523695	      0.94987866	      1.00836366	     -6.94748397	     -7.21080101	     -7.80976355	    -60.06514452	     -1.04833454	     -1.40133436	    -12.00254820	      6.23723275	    -18.72843387	     -4.04748791	     25.89644391	     -8.90844860	     -0.15548176	      3.74090370	    -11.23423838	     -7.97408094	    -24.44934232	     -4.39169880	      2.04973465	      2.08638689	     -9.37607785	     -5.94591042	     20.55822927	     89.95437384	      0.00000000	      0.00000000	      2.24731864	     10.50321896	      5.29613813	     17.74597551	     89.95437384	      0.00000000	      0.00000000
